<svg width="160" height="33" viewBox="0 0 160 33" fill="none" xmlns="http://www.w3.org/2000/svg">
<path d="M42.8539 24.1797C42.7348 24.1797 42.6231 24.135 42.5189 24.0457C42.4296 23.9415 42.3849 23.8298 42.3849 23.7107C42.3849 23.6214 42.3923 23.5544 42.4072 23.5097L47.6554 9.17213C47.7001 8.99347 47.7968 8.84458 47.9457 8.72547C48.0946 8.60637 48.2882 8.54681 48.5264 8.54681H51.8316C52.0698 8.54681 52.2634 8.60637 52.4123 8.72547C52.5611 8.84458 52.6579 8.99347 52.7026 9.17213L57.9284 23.5097L57.9731 23.7107C57.9731 23.8298 57.921 23.9415 57.8168 24.0457C57.7274 24.135 57.6158 24.1797 57.4818 24.1797H54.7348C54.3775 24.1797 54.1393 24.0233 54.0202 23.7107L53.1492 21.4328H47.1864L46.3378 23.7107C46.2187 24.0233 45.973 24.1797 45.6008 24.1797H42.8539ZM52.2559 18.2169L50.179 12.321L48.102 18.2169H52.2559Z" fill="white"/>
<path d="M63.0262 24.403C61.8202 24.403 60.8078 24.2318 59.9889 23.8893C59.185 23.5469 58.5894 23.1375 58.2023 22.6611C57.8152 22.1846 57.6217 21.7603 57.6217 21.3881C57.6217 21.2392 57.6738 21.1201 57.778 21.0308C57.8971 20.9265 58.0237 20.8744 58.1577 20.8744H60.7036C60.7929 20.8744 60.8748 20.9117 60.9492 20.9861C61.1279 21.1052 61.2619 21.202 61.3512 21.2764C61.6788 21.5146 61.9617 21.6933 62.1999 21.8124C62.453 21.9166 62.7582 21.9687 63.1155 21.9687C63.5473 21.9687 63.8971 21.8869 64.1651 21.7231C64.448 21.5444 64.5895 21.2988 64.5895 20.9861C64.5895 20.733 64.515 20.532 64.3661 20.3831C64.2321 20.2342 63.9641 20.0928 63.5622 19.9588C63.1602 19.8099 62.5497 19.6536 61.7309 19.4898C60.4951 19.2367 59.5423 18.8273 58.8723 18.2615C58.2172 17.6809 57.8897 16.9067 57.8897 15.9389C57.8897 15.3285 58.0832 14.7478 58.4703 14.197C58.8574 13.6461 59.4306 13.1994 60.1899 12.857C60.9641 12.5146 61.8798 12.3434 62.9368 12.3434C63.9939 12.3434 64.917 12.5071 65.7061 12.8347C66.4952 13.1622 67.0907 13.5642 67.4927 14.0406C67.9096 14.5022 68.118 14.9265 68.118 15.3136C68.118 15.4476 68.0659 15.5667 67.9617 15.6709C67.8724 15.7751 67.7607 15.8273 67.6267 15.8273H65.3041C65.185 15.8273 65.0733 15.79 64.9691 15.7156C64.7756 15.6114 64.6043 15.4997 64.4555 15.3806C64.2024 15.1871 63.9641 15.0382 63.7408 14.934C63.5175 14.8297 63.2421 14.7776 62.9145 14.7776C62.5274 14.7776 62.2148 14.867 61.9765 15.0456C61.7532 15.2243 61.6416 15.455 61.6416 15.7379C61.6416 15.9613 61.7011 16.1474 61.8202 16.2962C61.9542 16.4451 62.2222 16.594 62.6242 16.7429C63.0411 16.8769 63.6515 17.0183 64.4555 17.1672C65.8996 17.4203 66.9493 17.867 67.6044 18.5072C68.2743 19.1474 68.6093 19.8992 68.6093 20.7628C68.6093 21.8645 68.118 22.7504 67.1354 23.4204C66.1527 24.0755 64.783 24.403 63.0262 24.403Z" fill="white"/>
<path d="M74.1295 24.403C72.9235 24.403 71.9111 24.2318 71.0923 23.8893C70.2883 23.5469 69.6927 23.1375 69.3056 22.6611C68.9185 22.1846 68.725 21.7603 68.725 21.3881C68.725 21.2392 68.7771 21.1201 68.8813 21.0308C69.0004 20.9265 69.127 20.8744 69.261 20.8744H71.8069C71.8962 20.8744 71.9781 20.9117 72.0526 20.9861C72.2312 21.1052 72.3652 21.202 72.4545 21.2764C72.7821 21.5146 73.065 21.6933 73.3032 21.8124C73.5563 21.9166 73.8615 21.9687 74.2188 21.9687C74.6506 21.9687 75.0005 21.8869 75.2685 21.7231C75.5513 21.5444 75.6928 21.2988 75.6928 20.9861C75.6928 20.733 75.6183 20.532 75.4695 20.3831C75.3355 20.2342 75.0675 20.0928 74.6655 19.9588C74.2635 19.8099 73.6531 19.6536 72.8342 19.4898C71.5985 19.2367 70.6456 18.8273 69.9756 18.2615C69.3205 17.6809 68.993 16.9067 68.993 15.9389C68.993 15.3285 69.1865 14.7478 69.5736 14.197C69.9607 13.6461 70.5339 13.1994 71.2933 12.857C72.0675 12.5146 72.9831 12.3434 74.0402 12.3434C75.0972 12.3434 76.0203 12.5071 76.8094 12.8347C77.5985 13.1622 78.194 13.5642 78.596 14.0406C79.0129 14.5022 79.2213 14.9265 79.2213 15.3136C79.2213 15.4476 79.1692 15.5667 79.065 15.6709C78.9757 15.7751 78.864 15.8273 78.73 15.8273H76.4074C76.2883 15.8273 76.1767 15.79 76.0724 15.7156C75.8789 15.6114 75.7077 15.4997 75.5588 15.3806C75.3057 15.1871 75.0675 15.0382 74.8441 14.934C74.6208 14.8297 74.3454 14.7776 74.0178 14.7776C73.6307 14.7776 73.3181 14.867 73.0799 15.0456C72.8565 15.2243 72.7449 15.455 72.7449 15.7379C72.7449 15.9613 72.8044 16.1474 72.9235 16.2962C73.0575 16.4451 73.3255 16.594 73.7275 16.7429C74.1444 16.8769 74.7548 17.0183 75.5588 17.1672C77.003 17.4203 78.0526 17.867 78.7077 18.5072C79.3777 19.1474 79.7127 19.8992 79.7127 20.7628C79.7127 21.8645 79.2213 22.7504 78.2387 23.4204C77.2561 24.0755 75.8863 24.403 74.1295 24.403Z" fill="white"/>
<path d="M85.8135 24.403C84.0269 24.403 82.6199 23.9191 81.5926 22.9514C80.5653 21.9836 80.0293 20.5767 79.9846 18.7305V17.9489C80.0442 16.192 80.5876 14.8223 81.6149 13.8397C82.6571 12.8421 84.0492 12.3434 85.7911 12.3434C87.0567 12.3434 88.1212 12.6039 88.9847 13.125C89.8631 13.6312 90.5182 14.331 90.95 15.2243C91.3966 16.1176 91.62 17.1449 91.62 18.3062V18.8422C91.62 18.9911 91.5679 19.125 91.4636 19.2442C91.3594 19.3484 91.2254 19.4005 91.0616 19.4005H83.9152V19.5568C83.945 20.2566 84.1162 20.8223 84.4288 21.2541C84.7415 21.6859 85.1956 21.9017 85.7911 21.9017C86.1633 21.9017 86.4686 21.8273 86.7068 21.6784C86.945 21.5146 87.1609 21.3211 87.3544 21.0978C87.4884 20.934 87.5926 20.8372 87.6671 20.8074C87.7564 20.7628 87.8904 20.7404 88.0691 20.7404H90.8383C90.9723 20.7404 91.084 20.7851 91.1733 20.8744C91.2775 20.9489 91.3296 21.0531 91.3296 21.1871C91.3296 21.5742 91.1063 22.0208 90.6597 22.5271C90.2279 23.0333 89.5951 23.4725 88.7614 23.8447C87.9276 24.2169 86.945 24.403 85.8135 24.403ZM87.6894 17.1896V17.1449C87.6894 16.4154 87.5182 15.8421 87.1758 15.4253C86.8482 14.9935 86.3867 14.7776 85.7911 14.7776C85.2105 14.7776 84.7489 14.9935 84.4065 15.4253C84.079 15.8421 83.9152 16.4154 83.9152 17.1449V17.1896H87.6894Z" fill="white"/>
<path d="M93.0313 24.1797C92.8675 24.1797 92.7335 24.1276 92.6293 24.0233C92.5251 23.9191 92.4729 23.7851 92.4729 23.6214V13.125C92.4729 12.9612 92.5251 12.8272 92.6293 12.723C92.7335 12.6188 92.8675 12.5667 93.0313 12.5667H95.4655C95.6293 12.5667 95.7633 12.6188 95.8675 12.723C95.9717 12.8272 96.0238 12.9612 96.0238 13.125V13.8843C96.3663 13.4377 96.8204 13.0729 97.3861 12.79C97.9668 12.4922 98.6144 12.3434 99.3291 12.3434C100.967 12.3434 102.098 12.9836 102.724 14.264C103.081 13.6982 103.58 13.2367 104.22 12.8793C104.86 12.522 105.545 12.3434 106.275 12.3434C107.495 12.3434 108.485 12.7602 109.245 13.594C110.019 14.4129 110.406 15.6412 110.406 17.2789V23.6214C110.406 23.7702 110.354 23.9042 110.25 24.0233C110.146 24.1276 110.012 24.1797 109.848 24.1797H107.257C107.093 24.1797 106.952 24.1276 106.833 24.0233C106.729 23.9191 106.677 23.7851 106.677 23.6214V17.4352C106.677 16.6908 106.52 16.1548 106.208 15.8273C105.91 15.4997 105.5 15.3359 104.979 15.3359C104.503 15.3359 104.108 15.5072 103.796 15.8496C103.483 16.1771 103.327 16.7057 103.327 17.4352V23.6214C103.327 23.7702 103.275 23.9042 103.17 24.0233C103.066 24.1276 102.932 24.1797 102.768 24.1797H100.178C100.014 24.1797 99.8799 24.1276 99.7757 24.0233C99.6715 23.9191 99.6194 23.7851 99.6194 23.6214V17.4352C99.6194 16.7057 99.4556 16.1771 99.1281 15.8496C98.8154 15.5072 98.4134 15.3359 97.9221 15.3359C97.4457 15.3359 97.0437 15.5072 96.7162 15.8496C96.4035 16.1771 96.2472 16.6982 96.2472 17.4129V23.6214C96.2472 23.7702 96.1951 23.9042 96.0908 24.0233C95.9866 24.1276 95.8526 24.1797 95.6888 24.1797H93.0313Z" fill="white"/>
<path d="M118.791 24.403C117.302 24.403 116.148 23.9042 115.33 22.9067V23.6214C115.33 23.7702 115.277 23.9042 115.173 24.0233C115.069 24.1276 114.935 24.1797 114.771 24.1797H112.248C112.099 24.1797 111.965 24.1276 111.846 24.0233C111.741 23.9042 111.689 23.7702 111.689 23.6214V8.8818C111.689 8.71803 111.741 8.58403 111.846 8.47982C111.965 8.3756 112.099 8.32349 112.248 8.32349H114.972C115.136 8.32349 115.27 8.3756 115.374 8.47982C115.478 8.58403 115.531 8.71803 115.531 8.8818V13.661C116.364 12.7826 117.451 12.3434 118.791 12.3434C120.235 12.3434 121.374 12.8124 122.208 13.7503C123.042 14.6883 123.488 15.9613 123.548 17.5692C123.563 17.7628 123.57 18.0307 123.57 18.3732C123.57 18.7007 123.563 18.9613 123.548 19.1548C123.474 20.8223 123.027 22.1176 122.208 23.0407C121.389 23.9489 120.25 24.403 118.791 24.403ZM117.585 21.4104C118.285 21.4104 118.784 21.202 119.081 20.7851C119.394 20.3682 119.573 19.795 119.617 19.0655C119.647 18.7677 119.662 18.537 119.662 18.3732C119.662 18.2094 119.647 17.9786 119.617 17.6809C119.573 16.9513 119.394 16.3781 119.081 15.9613C118.784 15.5444 118.285 15.3359 117.585 15.3359C116.93 15.3359 116.431 15.5369 116.089 15.9389C115.746 16.3409 115.56 16.8471 115.531 17.4575L115.508 18.2839L115.531 19.1325C115.575 19.8025 115.754 20.3533 116.067 20.7851C116.394 21.202 116.9 21.4104 117.585 21.4104Z" fill="white"/>
<path d="M125.096 24.1797C124.947 24.1797 124.813 24.1276 124.694 24.0233C124.589 23.9042 124.537 23.7702 124.537 23.6214V8.8818C124.537 8.71803 124.589 8.58403 124.694 8.47982C124.813 8.3756 124.947 8.32349 125.096 8.32349H127.731C127.895 8.32349 128.029 8.3756 128.133 8.47982C128.237 8.58403 128.289 8.71803 128.289 8.8818V23.6214C128.289 23.7851 128.237 23.9191 128.133 24.0233C128.029 24.1276 127.895 24.1797 127.731 24.1797H125.096Z" fill="white"/>
<path d="M131.853 28.4229C131.719 28.4229 131.607 28.3782 131.518 28.2889C131.429 28.1996 131.384 28.0879 131.384 27.9539C131.384 27.8497 131.406 27.7529 131.451 27.6636L133.193 23.465L128.905 13.326C128.86 13.2069 128.838 13.1176 128.838 13.058C128.868 12.924 128.927 12.8124 129.017 12.723C129.106 12.6188 129.218 12.5667 129.352 12.5667H131.898C132.21 12.5667 132.426 12.723 132.545 13.0357L135.091 19.5345L137.704 13.0357C137.853 12.723 138.076 12.5667 138.374 12.5667H140.875C141.009 12.5667 141.121 12.6188 141.21 12.723C141.315 12.8124 141.367 12.9166 141.367 13.0357C141.367 13.0952 141.344 13.192 141.3 13.326L134.98 27.9539C134.861 28.2665 134.637 28.4229 134.31 28.4229H131.853Z" fill="white"/>
<path d="M140.23 24.1797C140.111 24.1797 139.999 24.135 139.895 24.0457C139.805 23.9415 139.761 23.8298 139.761 23.7107C139.761 23.6214 139.768 23.5544 139.783 23.5097L145.031 9.17213C145.076 8.99347 145.173 8.84458 145.322 8.72547C145.47 8.60637 145.664 8.54681 145.902 8.54681H149.207C149.446 8.54681 149.639 8.60637 149.788 8.72547C149.937 8.84458 150.034 8.99347 150.078 9.17213L155.304 23.5097L155.349 23.7107C155.349 23.8298 155.297 23.9415 155.193 24.0457C155.103 24.135 154.992 24.1797 154.858 24.1797H152.111C151.753 24.1797 151.515 24.0233 151.396 23.7107L150.525 21.4328H144.562L143.714 23.7107C143.594 24.0233 143.349 24.1797 142.977 24.1797H140.23ZM149.632 18.2169L147.555 12.321L145.478 18.2169H149.632Z" fill="white"/>
<path d="M156.427 24.1797C156.278 24.1797 156.144 24.1276 156.025 24.0233C155.921 23.9042 155.868 23.7702 155.868 23.6214V9.10513C155.868 8.94136 155.921 8.80736 156.025 8.70314C156.144 8.59892 156.278 8.54681 156.427 8.54681H159.419C159.583 8.54681 159.717 8.59892 159.821 8.70314C159.94 8.80736 160 8.94136 160 9.10513V23.6214C160 23.7851 159.94 23.9191 159.821 24.0233C159.717 24.1276 159.583 24.1797 159.419 24.1797H156.427Z" fill="white"/>
<g clip-path="url(#clip0)">
<path d="M3.04788 22.135L0.495235 28.1354C-0.220976 29.8153 -0.355661 31.731 1.43793 32.3983C1.86643 32.5594 2.30105 32.6342 2.73568 32.6342C4.11913 32.6342 5.43524 31.8518 5.98005 30.5689L6.49426 29.3608L10.4304 20.1157L14.3481 10.9052C15.2831 9.26804 15.8565 6.74865 19.5269 5.39389C16.6734 5.02795 10.9212 4.2749 10.8637 4.2749C10.8269 4.33243 10.4426 4.9164 10.4059 4.97393C10.3263 5.10049 10.2467 5.23281 10.1855 5.37088C10.1794 5.38239 10.1794 5.38814 10.1733 5.39389L3.054 22.1235C3.054 22.1235 3.04788 22.1293 3.04788 22.135Z" fill="url(#paint0_radial)"/>
<path d="M28.5675 22.1348L31.1201 28.1352C31.8363 29.815 31.971 31.7308 30.1774 32.3981C29.7489 32.5592 29.3143 32.634 28.8797 32.634C27.4962 32.634 26.1801 31.8516 25.6353 30.5687L25.1211 29.3606L21.185 20.1155L17.2673 10.905C16.3323 9.26783 14.7539 5.88358 10.5386 4.78962C11.0711 3.54123 12.8965 3.32837 14.3228 3.32837H18.1916H18.2222C18.3752 3.33412 18.5222 3.35138 18.6813 3.37439C18.7609 3.3859 18.8466 3.3859 18.9262 3.40316C19.0302 3.42617 19.1282 3.46644 19.2323 3.49521C19.3486 3.52972 19.4649 3.55273 19.5751 3.59876C19.624 3.62177 19.673 3.65054 19.722 3.67355C19.875 3.74258 20.0219 3.81162 20.1627 3.89791C20.2607 3.95544 20.3402 4.03598 20.4321 4.10502C20.5116 4.1683 20.6035 4.22583 20.6769 4.29487C20.7443 4.3639 20.8055 4.44445 20.8728 4.51923C20.9524 4.61128 21.0381 4.69182 21.1054 4.78962C21.1421 4.84715 21.1728 4.91619 21.2095 4.97372C21.2891 5.10028 21.3686 5.2326 21.4299 5.37067C21.436 5.38218 21.436 5.38793 21.4421 5.39369L28.5614 22.1233C28.5614 22.1233 28.5675 22.1291 28.5675 22.1348Z" fill="url(#paint1_radial)"/>
</g>
<defs>
<radialGradient id="paint0_radial" cx="0" cy="0" r="1" gradientUnits="userSpaceOnUse" gradientTransform="translate(12.1197 7.41692) rotate(112.412) scale(27.6399 18.8671)">
<stop stop-color="#142167"/>
<stop offset="1" stop-color="#263DB5"/>
</radialGradient>
<radialGradient id="paint1_radial" cx="0" cy="0" r="1" gradientUnits="userSpaceOnUse" gradientTransform="translate(29.5677 9.76656) rotate(132.41) scale(25.6557 89.7655)">
<stop stop-color="#4259D4"/>
<stop offset="1" stop-color="#6A81FC"/>
</radialGradient>
<clipPath id="clip0">
<rect width="32.2583" height="32.2583" fill="white" transform="translate(0 0.561523)"/>
</clipPath>
</defs>
</svg>
