<svg width="332" height="332" viewBox="0 0 332 332" fill="none" xmlns="http://www.w3.org/2000/svg">
<path d="M45.7718 70.7701C50.4477 69.0096 55.7252 70.3307 59.0204 74.0864L101.936 123.001H230.064L272.98 74.0864C276.275 70.3307 281.552 69.0096 286.228 70.7701C290.904 72.5306 294 77.0042 294 82.0005V190H332V214H270V113.873L244.52 142.915C242.242 145.512 238.955 147.001 235.5 147.001H96.5C93.0452 147.001 89.7581 145.512 87.4796 142.915L62 113.873V214H0V190H38V82.0005C38 77.0042 41.0958 72.5306 45.7718 70.7701Z" fill="currentColor"></path>
<path d="M270 238.001H332V262.001H270V238.001Z" fill="currentColor"></path>
<path d="M0 238.001H62V262.001H0V238.001Z" fill="currentColor"></path>
<path d="M128 198.001C128 206.837 120.837 214.001 112 214.001C103.163 214.001 96 206.837 96 198.001C96 189.164 103.163 182.001 112 182.001C120.837 182.001 128 189.164 128 198.001Z" fill="currentColor"></path>
<path d="M236 198.001C236 206.837 228.837 214.001 220 214.001C211.163 214.001 204 206.837 204 198.001C204 189.164 211.163 182.001 220 182.001C228.837 182.001 236 189.164 236 198.001Z" fill="currentColor"></path>
</svg>
