<svg width="117" height="30" viewBox="0 0 117 30" fill="none" xmlns="http://www.w3.org/2000/svg">
<g clip-path="url(#clip0_1_6342)">
<g clip-path="url(#clip1_1_6342)">
<path fill-rule="evenodd" clip-rule="evenodd" d="M10.288 5.01758C8.8216 5.01758 7.50576 5.91728 6.97527 7.28271L0.0982666 24.9819H5.32241L10.7355 11.0505H10.7377C10.8736 10.7109 11.2059 10.4711 11.5943 10.4711C11.9828 10.4711 12.3151 10.7109 12.451 11.0505H13.1722V8.2246H11.8334L13.0795 5.01758H10.288Z" fill="#2545D3"/>
<path fill-rule="evenodd" clip-rule="evenodd" d="M6.97567 7.28272C7.48467 5.97279 8.71638 5.0915 10.1104 5.02201L10.1087 5.01758H10.2884H12.2981H12.9896C14.4559 5.01758 15.7718 5.91728 16.3023 7.28271L23.1793 24.9819H17.8658L11.1971 7.8188C10.8153 6.97767 9.96727 6.39259 8.98243 6.39259C7.99519 6.39259 7.14543 6.98054 6.76495 7.82501L6.97567 7.28272Z" fill="#566DE8"/>
<path d="M31.4572 18.9209L32.4767 16.2078H36.9774L38.0124 18.9209H39.9415L35.8485 7.94336H33.6998L29.5911 18.9209H31.4572ZM34.7192 9.88794L36.4755 14.671H32.9786L34.7192 9.88794Z" fill="#050506"/>
<path d="M40.7903 16.2701C40.8374 18.0109 42.3116 19.0145 44.46 19.0145C46.4046 19.0145 47.863 18.0422 47.863 16.5054C47.863 14.7176 46.3731 14.3412 44.5383 14.1217C43.3778 13.9962 42.6095 13.9021 42.6095 13.1494C42.6095 12.5064 43.268 12.0987 44.2719 12.0987C45.2754 12.0987 45.9654 12.6162 46.0596 13.3532H47.722C47.6122 11.7066 46.2162 10.7971 44.2404 10.7971C42.3116 10.7814 40.9472 11.7694 40.9472 13.2905C40.9472 14.9528 42.3899 15.3449 44.2248 15.5645C45.4635 15.7213 46.2006 15.784 46.2006 16.6465C46.2006 17.2895 45.5106 17.6972 44.46 17.6972C43.2369 17.6972 42.5153 17.1013 42.4526 16.2701H40.7903Z" fill="#050506"/>
<path d="M49.1478 16.2701C49.1949 18.0109 50.6689 19.0145 52.8175 19.0145C54.7619 19.0145 56.2205 18.0422 56.2205 16.5054C56.2205 14.7176 54.7307 14.3412 52.8958 14.1217C51.7354 13.9962 50.9668 13.9021 50.9668 13.1494C50.9668 12.5064 51.6256 12.0987 52.6291 12.0987C53.6329 12.0987 54.323 12.6162 54.4169 13.3532H56.0792C55.9694 11.7066 54.5738 10.7971 52.5979 10.7971C50.6689 10.7814 49.3047 11.7694 49.3047 13.2905C49.3047 14.9528 50.7475 15.3449 52.5823 15.5645C53.821 15.7213 54.5582 15.784 54.5582 16.6465C54.5582 17.2895 53.8681 17.6972 52.8175 17.6972C51.5941 17.6972 50.8729 17.1013 50.8102 16.2701H49.1478Z" fill="#050506"/>
<path d="M61.8143 19.0153C63.8057 19.0153 65.1546 17.8078 65.4369 16.2239H63.743C63.5078 17.1178 62.7551 17.6353 61.7201 17.6353C60.3872 17.6353 59.5246 16.7414 59.4775 15.3771V15.2673H65.5308C65.5623 15.0477 65.5779 14.8282 65.5779 14.6243C65.5308 12.272 63.9782 10.7979 61.6574 10.7979C59.2894 10.7979 57.7054 12.4445 57.7054 14.9223C57.7054 17.3844 59.2894 19.0153 61.8143 19.0153ZM59.5402 14.0284C59.6656 12.8836 60.5909 12.1622 61.673 12.1622C62.8493 12.1622 63.6803 12.8365 63.8216 14.0284H59.5402Z" fill="#050506"/>
<path d="M76.6544 10.7979C75.337 10.7979 74.4277 11.3781 73.9102 12.2563C73.4239 11.2213 72.4831 10.7979 71.4324 10.7979C70.2249 10.8135 69.5349 11.3467 69.0801 11.9427L68.8917 10.892H67.4177V18.9212H69.1113V14.6243C69.1113 13.1972 69.8328 12.2563 70.9932 12.2563C72.1065 12.2563 72.6868 12.9934 72.6868 14.4048V18.9212H74.3962V14.5773C74.3962 13.1345 75.1333 12.2563 76.2938 12.2563C77.3915 12.2563 77.9717 12.9934 77.9717 14.4048V18.9212H79.6655V14.295C79.6655 11.7545 78.3167 10.7979 76.6544 10.7979Z" fill="#050506"/>
<path d="M85.968 10.7975C84.7293 10.7975 83.898 11.3621 83.3649 12.0835V7.94336H81.6713V18.9209H83.1453L83.3493 17.7604C83.8512 18.4818 84.7137 19.015 85.968 19.015C88.1638 19.015 89.7631 17.3683 89.7631 14.9062C89.7631 12.3187 88.1638 10.7975 85.968 10.7975ZM85.686 17.5879C84.2745 17.5879 83.3493 16.4745 83.3493 14.8905C83.3493 13.338 84.2745 12.2403 85.686 12.2403C87.0973 12.2403 88.0381 13.338 88.0381 14.9062C88.0381 16.4901 87.0973 17.5879 85.686 17.5879Z" fill="#050506"/>
<path d="M91.5908 18.9209H93.2847V7.94336H91.5908V18.9209Z" fill="#050506"/>
<path d="M97.7361 18.9669L97.4226 19.751C97.1715 20.4097 97.0149 20.5665 96.3561 20.5665H95.1644V22.0563H96.9834C98.1597 22.0563 98.5047 21.4761 99.0063 20.1745L102.645 10.8906H100.841L98.6613 16.991L96.4188 10.8906H94.6154L97.7361 18.9669Z" fill="#050506"/>
<path d="M104.719 18.9209L105.738 16.2078H110.239L111.274 18.9209H113.203L109.11 7.94336H106.961L102.853 18.9209H104.719ZM107.981 9.88794L109.737 14.671H106.24L107.981 9.88794Z" fill="#050506"/>
<path d="M114.799 18.9209H116.602V7.94336H114.799V18.9209Z" fill="#050506"/>
</g>
</g>
<defs>
<clipPath id="clip0_1_6342">
<rect width="116.667" height="30" fill="white"/>
</clipPath>
<clipPath id="clip1_1_6342">
<rect width="116.667" height="20" fill="white" transform="translate(0 5)"/>
</clipPath>
</defs>
</svg>
