<svg xmlns="http://www.w3.org/2000/svg" xml:space="preserve" fill-rule="evenodd" stroke-linejoin="round" stroke-miterlimit="2" clip-rule="evenodd" viewBox="0 0 128 128"><path fill="url(#a)" d="m26.206 127.572 94.267-6.397 7.26-95.052-28.724 58.219-72.803 43.23Z"/><path fill="url(#b)" d="m90.456 94.331 30.171 26.779-8.102-55.921-22.069 29.142Z"/><path fill="url(#c)" d="m26.522 127.45 94.215-6.34-59.359-4.659-34.856 10.999Z"/><path fill="url(#d)" d="m8.804 85.861 17.801 41.602 14.828-48.578-32.629 6.976Z"/><path fill="url(#e)" d="m37.759 77.649 52.69 16.843-13.644-53.444-39.046 36.601Z"/><path fill="url(#f)" d="m77.449 44.884 47.188-3.083-36.91-30.146-10.278 33.229Z"/><path fill="url(#g)" d="m71.972.746 35.404.161-21.708 11.997L71.972.746Z"/><path fill="url(#h)" d="M1.956 65.813.218 102.157l9.094-16.586-7.356-19.758Z"/><path fill="#fff" d="m1.467 65.189 7.401 20.994 32.16-7.215 36.717-34.123 10.362-32.913L71.792.412 44.053 10.793c-8.74 8.128-25.699 24.212-26.31 24.514-.605.309-11.198 20.331-16.276 29.882Z"/><path fill="url(#i)" d="M27.455 27.474C46.396 8.695 70.814-2.401 80.184 7.053c9.364 9.455-.566 32.431-19.507 51.204-18.941 18.774-43.056 30.481-52.42 21.026-9.371-9.447.257-33.035 19.198-51.809Z"/><path fill="url(#j)" d="m26.605 127.443 14.713-48.732 48.861 15.697c-17.667 16.566-37.315 30.57-63.574 33.035Z"/><path fill="url(#k)" d="m77.809 44.749 12.544 49.685c14.757-15.517 28.003-32.199 34.49-52.833l-47.034 3.148Z"/><path fill="url(#l)" d="M124.714 41.852c5.02-15.15 6.178-36.884-17.493-40.919L87.798 11.662l36.916 30.19Z"/><path fill="#9e1209" d="M.218 101.938c.695 25.003 18.735 25.377 26.42 25.595L8.887 86.08.218 101.938Z"/><path fill="url(#m)" d="M77.88 44.826c11.34 6.97 34.194 20.968 34.658 21.226.72.405 9.853-15.402 11.925-24.335L77.88 44.826Z"/><path fill="url(#n)" d="m41.298 78.711 19.668 37.946c11.63-6.308 20.737-13.992 29.078-22.223L41.298 78.711Z"/><path fill="url(#o)" d="m8.81 86.131-2.787 33.184c5.259 7.182 12.492 7.806 20.08 7.247C20.614 112.898 9.647 85.578 8.81 86.131Z"/><path fill="url(#p)" d="m87.682 11.745 39.072 5.484C124.669 8.392 118.265 2.69 107.35.907L87.682 11.745Z"/><defs><linearGradient id="a" x1="0" x2="1" y1="0" y2="0" gradientTransform="rotate(-119.527 96.672 36.854) scale(54.5864)" gradientUnits="userSpaceOnUse"><stop offset="0" stop-color="#fb7655"/><stop offset=".41" stop-color="#e42b1e"/><stop offset=".99" stop-color="#900"/><stop offset="1" stop-color="#900"/></linearGradient><linearGradient id="b" x1="0" x2="1" y1="0" y2="0" gradientTransform="rotate(-146.136 77.93 30.493) scale(41.7521)" gradientUnits="userSpaceOnUse"><stop offset="0" stop-color="#871101"/><stop offset=".99" stop-color="#911209"/><stop offset="1" stop-color="#911209"/></linearGradient><linearGradient id="c" x1="0" x2="1" y1="0" y2="0" gradientTransform="rotate(-146.136 70.354 55.38) scale(41.7521)" gradientUnits="userSpaceOnUse"><stop offset="0" stop-color="#871101"/><stop offset=".99" stop-color="#911209"/><stop offset="1" stop-color="#911209"/></linearGradient><linearGradient id="d" x1="0" x2="1" y1="0" y2="0" gradientTransform="rotate(81.253 -35.463 55.842) scale(35.3406)" gradientUnits="userSpaceOnUse"><stop offset="0" stop-color="#fff"/><stop offset=".23" stop-color="#e57252"/><stop offset=".46" stop-color="#de3b20"/><stop offset=".99" stop-color="#a60003"/><stop offset="1" stop-color="#a60003"/></linearGradient><linearGradient id="e" x1="0" x2="1" y1="0" y2="0" gradientTransform="rotate(86.82 4.732 57.707) scale(35.70336)" gradientUnits="userSpaceOnUse"><stop offset="0" stop-color="#fff"/><stop offset=".23" stop-color="#e4714e"/><stop offset=".56" stop-color="#be1a0d"/><stop offset=".99" stop-color="#a80d00"/><stop offset="1" stop-color="#a80d00"/></linearGradient><linearGradient id="f" x1="0" x2="1" y1="0" y2="0" gradientTransform="rotate(76.936 36.85 68.136) scale(26.22608)" gradientUnits="userSpaceOnUse"><stop offset="0" stop-color="#fff"/><stop offset=".18" stop-color="#e46342"/><stop offset=".4" stop-color="#c82410"/><stop offset=".99" stop-color="#a80d00"/><stop offset="1" stop-color="#a80d00"/></linearGradient><linearGradient id="g" x1="0" x2="1" y1="0" y2="0" gradientTransform="rotate(-26.565 55.01 -158.719) scale(28.562)" gradientUnits="userSpaceOnUse"><stop offset="0" stop-color="#fff"/><stop offset=".54" stop-color="#c81f11"/><stop offset=".99" stop-color="#bf0905"/><stop offset="1" stop-color="#bf0905"/></linearGradient><linearGradient id="h" x1="0" x2="1" y1="0" y2="0" gradientTransform="rotate(84.296 -39.245 38.251) scale(21.15654)" gradientUnits="userSpaceOnUse"><stop offset="0" stop-color="#fff"/><stop offset=".31" stop-color="#de4024"/><stop offset=".99" stop-color="#bf190b"/><stop offset="1" stop-color="#bf190b"/></linearGradient><linearGradient id="i" x1="0" x2="1" y1="0" y2="0" gradientTransform="rotate(-45.799 112.788 64) scale(141.7694)" gradientUnits="userSpaceOnUse"><stop offset="0" stop-color="#bd0012"/><stop offset=".07" stop-color="#fff"/><stop offset=".17" stop-color="#fff"/><stop offset=".27" stop-color="#c82f1c"/><stop offset=".33" stop-color="#820c01"/><stop offset=".46" stop-color="#a31601"/><stop offset=".72" stop-color="#b31301"/><stop offset=".99" stop-color="#e82609"/><stop offset="1" stop-color="#e82609"/></linearGradient><linearGradient id="j" x1="0" x2="1" y1="0" y2="0" gradientTransform="rotate(-166.136 38.706 51.355) scale(30.66187)" gradientUnits="userSpaceOnUse"><stop offset="0" stop-color="#8c0c01"/><stop offset=".54" stop-color="#990c00"/><stop offset=".99" stop-color="#a80d0e"/><stop offset="1" stop-color="#a80d0e"/></linearGradient><linearGradient id="k" x1="0" x2="1" y1="0" y2="0" gradientTransform="rotate(-138.131 71.856 15.359) scale(35.5156)" gradientUnits="userSpaceOnUse"><stop offset="0" stop-color="#7e110b"/><stop offset=".99" stop-color="#9e0c00"/><stop offset="1" stop-color="#9e0c00"/></linearGradient><linearGradient id="l" x1="0" x2="1" y1="0" y2="0" gradientTransform="rotate(-133.088 69.199 -11.45) scale(19.2855)" gradientUnits="userSpaceOnUse"><stop offset="0" stop-color="#79130d"/><stop offset=".99" stop-color="#9e120b"/><stop offset="1" stop-color="#9e120b"/></linearGradient><linearGradient id="o" x1="0" x2="1" y1="0" y2="0" gradientTransform="rotate(-106.423 56.339 57.22) scale(37.9745)" gradientUnits="userSpaceOnUse"><stop offset="0" stop-color="#8b2114"/><stop offset=".43" stop-color="#9e100a"/><stop offset=".99" stop-color="#b3100c"/><stop offset="1" stop-color="#b3100c"/></linearGradient><linearGradient id="p" x1="0" x2="1" y1="0" y2="0" gradientTransform="rotate(23.817 33.941 239.851) scale(26.311)" gradientUnits="userSpaceOnUse"><stop offset="0" stop-color="#b31000"/><stop offset=".44" stop-color="#910f08"/><stop offset=".99" stop-color="#791c12"/><stop offset="1" stop-color="#791c12"/></linearGradient><radialGradient id="m" cx="0" cy="0" r="1" gradientTransform="translate(92.785 51.506) scale(32.4112)" gradientUnits="userSpaceOnUse"><stop offset="0" stop-color="#a80d00"/><stop offset=".99" stop-color="#7e0e08"/><stop offset="1" stop-color="#7e0e08"/></radialGradient><radialGradient id="n" cx="0" cy="0" r="1" gradientTransform="translate(47.902 94.215) scale(43.0863)" gradientUnits="userSpaceOnUse"><stop offset="0" stop-color="#a30c00"/><stop offset=".99" stop-color="#800e08"/><stop offset="1" stop-color="#800e08"/></radialGradient></defs></svg>