<svg width="191" height="100" viewBox="0 0 191 100" fill="none" xmlns="http://www.w3.org/2000/svg">
<path d="M87.6667 25C87.6667 20.8579 91.0246 17.5 95.1667 17.5H152.167C156.309 17.5 159.667 20.8579 159.667 25V37.5H95.1667C91.0246 37.5 87.6667 34.1421 87.6667 30V25Z" fill="#252522"/>
<rect x="95.1667" y="25" width="57" height="5" rx="2.5" fill="#3C3C38"/>
<path d="M87.6667 25C87.6667 20.8579 91.0246 17.5 95.1667 17.5H152.167C156.309 17.5 159.667 20.8579 159.667 25V37.5H95.1667C91.0246 37.5 87.6667 34.1421 87.6667 30V25Z" stroke="#464743"/>
<rect x="79.6667" y="29.5" width="16" height="16" rx="8" fill="#2C2D2C"/>
<path d="M85.8667 38.4C85.8667 38.4 86.5417 39.3 87.6667 39.3C88.7917 39.3 89.4667 38.4 89.4667 38.4M89.9167 36.258C89.739 36.4762 89.496 36.6 89.2417 36.6C88.9875 36.6 88.7512 36.4762 88.5667 36.258M86.7667 36.258C86.589 36.4762 86.346 36.6 86.0917 36.6C85.8375 36.6 85.6012 36.4762 85.4167 36.258M92.1667 37.5C92.1667 39.9853 90.152 42 87.6667 42C85.1814 42 83.1667 39.9853 83.1667 37.5C83.1667 35.0147 85.1814 33 87.6667 33C90.152 33 92.1667 35.0147 92.1667 37.5Z" stroke="white" stroke-linecap="round" stroke-linejoin="round"/>
<rect x="79.6667" y="29.5" width="16" height="16" rx="8" stroke="#464743"/>
<path d="M29.6667 63C29.6667 58.8579 33.0246 55.5 37.1667 55.5H94.1667C98.3089 55.5 101.667 58.8579 101.667 63V68C101.667 72.1421 98.3089 75.5 94.1667 75.5H29.6667V63Z" fill="#252522"/>
<rect x="37.1667" y="63" width="57" height="5" rx="2.5" fill="#3C3C38"/>
<path d="M29.6667 63C29.6667 58.8579 33.0246 55.5 37.1667 55.5H94.1667C98.3089 55.5 101.667 58.8579 101.667 63V68C101.667 72.1421 98.3089 75.5 94.1667 75.5H29.6667V63Z" stroke="#464743"/>
<rect x="95.6667" y="67.5" width="16" height="16" rx="8" fill="#2C2D2C"/>
<path d="M105.467 77.3C105.467 77.3 104.792 76.4 103.667 76.4C102.542 76.4 101.867 77.3 101.867 77.3M105.917 74.258C105.739 74.4762 105.496 74.6 105.242 74.6C104.987 74.6 104.751 74.4762 104.567 74.258M102.767 74.258C102.589 74.4762 102.346 74.6 102.092 74.6C101.837 74.6 101.601 74.4762 101.417 74.258M108.167 75.5C108.167 77.9853 106.152 80 103.667 80C101.181 80 99.1667 77.9853 99.1667 75.5C99.1667 73.0147 101.181 71 103.667 71C106.152 71 108.167 73.0147 108.167 75.5Z" stroke="white" stroke-linecap="round" stroke-linejoin="round"/>
<rect x="95.6667" y="67.5" width="16" height="16" rx="8" stroke="#464743"/>
</svg>
