<svg width="402" height="70" viewBox="0 0 402 70" fill="none" xmlns="http://www.w3.org/2000/svg">
<path d="M108.884 52.9475L112.95 42.5553H129.707L133.773 52.9475H138.883L124.268 14.4576H118.609L103.939 52.9475H108.884ZM121.301 19.6813L128.279 38.2114H114.378L121.301 19.6813Z" fill="white"/>
<path d="M142.479 43.71C142.589 49.8683 147.589 53.2774 154.842 53.2774C161.05 53.2774 166.05 50.0333 166.05 44.8097C166.05 38.5963 160.94 37.3866 154.567 36.6168C150.501 36.1219 147.534 35.737 147.534 32.6579C147.534 30.0735 150.171 28.424 154.072 28.424C157.918 28.424 160.556 30.5684 160.885 33.4277H165.5C165.061 27.5992 160.446 24.63 154.072 24.575C147.754 24.52 143.084 27.8741 143.084 32.9878C143.084 38.8162 148.084 40.0809 154.347 40.8507C158.523 41.3456 161.6 41.6205 161.6 45.1396C161.6 47.7239 158.797 49.4285 154.842 49.4285C150.171 49.4285 147.259 47.0091 147.095 43.71H142.479Z" fill="white"/>
<path d="M171.009 43.71C171.119 49.8683 176.119 53.2774 183.371 53.2774C189.58 53.2774 194.58 50.0333 194.58 44.8097C194.58 38.5963 189.47 37.3866 183.096 36.6168C179.031 36.1219 176.064 35.737 176.064 32.6579C176.064 30.0735 178.701 28.424 182.602 28.424C186.448 28.424 189.085 30.5684 189.415 33.4277H194.03C193.591 27.5992 188.975 24.63 182.602 24.575C176.283 24.52 171.613 27.8741 171.613 32.9878C171.613 38.8162 176.613 40.0809 182.877 40.8507C187.052 41.3456 190.129 41.6205 190.129 45.1396C190.129 47.7239 187.327 49.4285 183.371 49.4285C178.701 49.4285 175.789 47.0091 175.624 43.71H171.009Z" fill="white"/>
<path d="M214.141 53.2774C220.624 53.2774 225.239 49.1535 226.338 43.545H221.778C220.844 47.174 217.767 49.2635 213.811 49.2635C208.481 49.2635 205.13 45.5245 204.965 40.1909V39.806H226.722C226.777 39.1462 226.832 38.4863 226.832 37.8815C226.613 29.5787 221.448 24.575 213.536 24.575C205.624 24.575 200.24 30.4034 200.24 38.9262C200.24 47.504 205.734 53.2774 214.141 53.2774ZM205.24 36.067C205.679 31.5032 209.47 28.5339 213.591 28.5339C218.261 28.5339 221.558 31.2282 221.997 36.067H205.24Z" fill="white"/>
<path d="M264.884 24.575C259.884 24.575 256.863 26.8844 255.159 29.9086C253.566 26.3345 250.214 24.575 246.314 24.575C241.973 24.575 239.61 26.7194 238.127 28.7539L237.523 24.9049H233.622V52.9475H238.127V38.1564C238.127 32.5479 240.929 28.6989 245.544 28.6989C249.83 28.6989 252.302 31.5581 252.302 37.0567V52.9475H256.808V37.9365C256.808 32.218 259.665 28.6989 264.335 28.6989C268.565 28.6989 270.983 31.5581 270.983 37.0567V52.9475H275.488V36.7818C275.488 27.9291 270.708 24.575 264.884 24.575Z" fill="white"/>
<path d="M297.036 24.575C292.311 24.575 289.289 26.8294 287.421 29.4137V14.4576H282.916V52.9475H286.817L287.421 48.6587C289.124 51.3529 292.311 53.2774 297.036 53.2774C304.783 53.2774 310.497 47.504 310.497 38.9262C310.497 29.7986 304.783 24.575 297.036 24.575ZM296.597 49.2635C291.102 49.2635 287.366 44.9746 287.366 38.8162C287.366 32.8228 291.102 28.5889 296.597 28.5889C302.146 28.5889 305.882 32.8228 305.882 38.9262C305.882 45.0296 302.146 49.2635 296.597 49.2635Z" fill="white"/>
<path d="M317.294 52.9475H321.799V14.4576H317.294V52.9475Z" fill="white"/>
<path d="M337.751 53.1125L336.378 56.5216C335.334 59.1609 334.894 59.8207 332.312 59.8207H328.301V63.9446H333.685C337.641 63.9446 338.685 62.1851 340.443 57.6763L353.355 24.9049H348.575L340.224 47.284L331.598 24.9049H326.818L337.751 53.1125Z" fill="white"/>
<path d="M359.763 52.9475L363.829 42.5553H380.587L384.652 52.9475H389.762L375.147 14.4576H369.488L354.818 52.9475H359.763ZM372.18 19.6813L379.158 38.2114H365.257L372.18 19.6813Z" fill="white"/>
<path d="M395.762 52.9475H400.542V14.4576H395.762V52.9475Z" fill="white"/>
<path d="M108.884 52.9475L112.95 42.5553H129.707L133.773 52.9475H138.883L124.268 14.4576H118.609L103.939 52.9475H108.884ZM121.301 19.6813L128.279 38.2114H114.378L121.301 19.6813Z" stroke="white"/>
<path d="M142.479 43.71C142.589 49.8683 147.589 53.2774 154.842 53.2774C161.05 53.2774 166.05 50.0333 166.05 44.8097C166.05 38.5963 160.94 37.3866 154.567 36.6168C150.501 36.1219 147.534 35.737 147.534 32.6579C147.534 30.0735 150.171 28.424 154.072 28.424C157.918 28.424 160.556 30.5684 160.885 33.4277H165.5C165.061 27.5992 160.446 24.63 154.072 24.575C147.754 24.52 143.084 27.8741 143.084 32.9878C143.084 38.8162 148.084 40.0809 154.347 40.8507C158.523 41.3456 161.6 41.6205 161.6 45.1396C161.6 47.7239 158.797 49.4285 154.842 49.4285C150.171 49.4285 147.259 47.0091 147.095 43.71H142.479Z" stroke="white"/>
<path d="M171.009 43.71C171.119 49.8683 176.119 53.2774 183.371 53.2774C189.58 53.2774 194.58 50.0333 194.58 44.8097C194.58 38.5963 189.47 37.3866 183.096 36.6168C179.031 36.1219 176.064 35.737 176.064 32.6579C176.064 30.0735 178.701 28.424 182.602 28.424C186.448 28.424 189.085 30.5684 189.415 33.4277H194.03C193.591 27.5992 188.975 24.63 182.602 24.575C176.283 24.52 171.613 27.8741 171.613 32.9878C171.613 38.8162 176.613 40.0809 182.877 40.8507C187.052 41.3456 190.129 41.6205 190.129 45.1396C190.129 47.7239 187.327 49.4285 183.371 49.4285C178.701 49.4285 175.789 47.0091 175.624 43.71H171.009Z" stroke="white"/>
<path d="M214.141 53.2774C220.624 53.2774 225.239 49.1535 226.338 43.545H221.778C220.844 47.174 217.767 49.2635 213.811 49.2635C208.481 49.2635 205.13 45.5245 204.965 40.1909V39.806H226.722C226.777 39.1462 226.832 38.4863 226.832 37.8815C226.613 29.5787 221.448 24.575 213.536 24.575C205.624 24.575 200.24 30.4034 200.24 38.9262C200.24 47.504 205.734 53.2774 214.141 53.2774ZM205.24 36.067C205.679 31.5032 209.47 28.5339 213.591 28.5339C218.261 28.5339 221.558 31.2282 221.997 36.067H205.24Z" stroke="white"/>
<path d="M264.884 24.575C259.884 24.575 256.863 26.8844 255.159 29.9086C253.566 26.3345 250.214 24.575 246.314 24.575C241.973 24.575 239.61 26.7194 238.127 28.7539L237.523 24.9049H233.622V52.9475H238.127V38.1564C238.127 32.5479 240.929 28.6989 245.544 28.6989C249.83 28.6989 252.302 31.5581 252.302 37.0567V52.9475H256.808V37.9365C256.808 32.218 259.665 28.6989 264.335 28.6989C268.565 28.6989 270.983 31.5581 270.983 37.0567V52.9475H275.488V36.7818C275.488 27.9291 270.708 24.575 264.884 24.575Z" stroke="white"/>
<path d="M297.036 24.575C292.311 24.575 289.289 26.8294 287.421 29.4137V14.4576H282.916V52.9475H286.817L287.421 48.6587C289.124 51.3529 292.311 53.2774 297.036 53.2774C304.783 53.2774 310.497 47.504 310.497 38.9262C310.497 29.7986 304.783 24.575 297.036 24.575ZM296.597 49.2635C291.102 49.2635 287.366 44.9746 287.366 38.8162C287.366 32.8228 291.102 28.5889 296.597 28.5889C302.146 28.5889 305.882 32.8228 305.882 38.9262C305.882 45.0296 302.146 49.2635 296.597 49.2635Z" stroke="white"/>
<path d="M317.294 52.9475H321.799V14.4576H317.294V52.9475Z" stroke="white"/>
<path d="M337.751 53.1125L336.378 56.5216C335.334 59.1609 334.894 59.8207 332.312 59.8207H328.301V63.9446H333.685C337.641 63.9446 338.685 62.1851 340.443 57.6763L353.355 24.9049H348.575L340.224 47.284L331.598 24.9049H326.818L337.751 53.1125Z" stroke="white"/>
<path d="M359.763 52.9475L363.829 42.5553H380.587L384.652 52.9475H389.762L375.147 14.4576H369.488L354.818 52.9475H359.763ZM372.18 19.6813L379.158 38.2114H365.257L372.18 19.6813Z" stroke="white"/>
<path d="M395.762 52.9475H400.542V14.4576H395.762V52.9475Z" stroke="white"/>
<path d="M24.6338 7.87297C24.6247 7.89599 24.6157 7.91905 24.6067 7.94215L0.541992 70H18.8229L37.7648 21.153H37.7728C38.2481 19.9624 39.4111 19.1213 40.7704 19.1213C41.0152 19.1213 41.2537 19.1486 41.483 19.2003L38.0059 10.2338C36.7141 7.38201 33.8446 5.39836 30.5122 5.39836C28.2089 5.39836 26.1267 6.34601 24.6338 7.87297Z" fill="white"/>
<path d="M24.6067 7.94215C26.3878 3.3492 30.6993 0.259177 35.5775 0.0155391L35.5715 2.0817e-06H45.6525C50.784 2.0817e-06 55.3884 3.15458 57.2449 7.94215L81.3097 70H62.7161L39.3802 9.82181C38.0442 6.87257 35.0767 4.82114 31.6304 4.82114C28.1757 4.82114 25.202 6.88266 23.8708 9.84355L24.6067 7.94215Z" fill="white"/>
</svg>
