<svg width="191" height="100" viewBox="0 0 191 100" fill="none" xmlns="http://www.w3.org/2000/svg">
<rect x="3.00002" y="16.5" width="184" height="67" rx="7.5" fill="#252522"/>
<rect x="10.5" y="24" width="169" height="4" rx="2" fill="#3C3C38"/>
<rect x="114.996" y="24" width="37.4122" height="4" rx="2" fill="#EB942B" fill-opacity="0.3"/>
<rect x="10.5" y="36" width="169" height="4" rx="2" fill="#3C3C38"/>
<rect x="55.4758" y="36" width="39.5242" height="4" rx="2" fill="#EB942B" fill-opacity="0.3"/>
<rect x="149.516" y="36" width="21.8065" height="4" rx="2" fill="#EB942B" fill-opacity="0.3"/>
<rect x="10.5" y="48" width="169" height="4" rx="2" fill="#3C3C38"/>
<rect x="116.616" y="48" width="20.9612" height="4" rx="2" fill="#EB942B" fill-opacity="0.3"/>
<rect x="23.6008" y="48" width="20.9612" height="4" rx="2" fill="#EB942B" fill-opacity="0.3"/>
<rect x="10.5" y="60" width="169" height="4" rx="2" fill="#3C3C38"/>
<rect x="62.0593" y="60" width="22.9153" height="4" rx="2" fill="#EB942B" fill-opacity="0.3"/>
<rect x="146.559" y="60" width="22.9153" height="4" rx="2" fill="#EB942B" fill-opacity="0.3"/>
<rect x="10.5" y="72" width="169" height="4" rx="2" fill="#3C3C38"/>
<rect x="91.7248" y="72" width="20.9612" height="4" rx="2" fill="#EB942B" fill-opacity="0.3"/>
<rect x="3.00002" y="16.5" width="184" height="67" rx="7.5" stroke="#464743"/>
</svg>
